<svg width="20" height="20" viewBox="0 0 20 20" fill="none" xmlns="http://www.w3.org/2000/svg">
<g clip-path="url(#clip0_327_246)">
<path d="M11.875 3.75C12.9262 4.02681 13.8851 4.57767 14.6537 5.34631C15.4223 6.11494 15.9732 7.07382 16.25 8.125" stroke="black" stroke-width="1.5" stroke-linecap="round" stroke-linejoin="round"/>
<path d="M11.25 6.25C12.5406 6.59531 13.4047 7.45937 13.75 8.75" stroke="black" stroke-width="1.5" stroke-linecap="round" stroke-linejoin="round"/>
<path d="M12.218 11.9794C12.3045 11.9218 12.4041 11.8867 12.5076 11.8773C12.6112 11.8679 12.7154 11.8844 12.8109 11.9255L16.4953 13.5762C16.6195 13.6293 16.7231 13.7212 16.7907 13.8381C16.8583 13.9549 16.8862 14.0906 16.8703 14.2247C16.7489 15.1317 16.3023 15.9639 15.6133 16.5663C14.9244 17.1687 14.0402 17.5004 13.125 17.4997C10.3071 17.4997 7.60457 16.3803 5.61199 14.3877C3.61942 12.3951 2.5 9.6926 2.5 6.87468C2.4993 5.95952 2.831 5.07526 3.43341 4.38634C4.03582 3.69742 4.86793 3.25074 5.775 3.12936C5.90909 3.11344 6.04473 3.14136 6.16162 3.20896C6.27851 3.27656 6.37037 3.3802 6.42344 3.50436L8.07422 7.19186C8.11478 7.28657 8.1313 7.38984 8.1223 7.49248C8.1133 7.59512 8.07907 7.69394 8.02266 7.78015L6.35313 9.7653C6.2939 9.85466 6.25888 9.95786 6.25149 10.0648C6.24409 10.1718 6.26458 10.2788 6.31094 10.3755C6.95703 11.6981 8.32422 13.0489 9.65078 13.6887C9.74795 13.7349 9.85548 13.7549 9.96276 13.7468C10.07 13.7388 10.1733 13.7028 10.2625 13.6426L12.218 11.9794Z" stroke="black" stroke-width="1.5" stroke-linecap="round" stroke-linejoin="round"/>
</g>
<defs>
<clipPath id="clip0_327_246">
<rect width="20" height="20" fill="white"/>
</clipPath>
</defs>
</svg>
