<svg width="20" height="20" viewBox="0 0 20 20" fill="none" xmlns="http://www.w3.org/2000/svg">
<path d="M7 9.91734L9.08333 12.0007L13.6667 7.00067" stroke="#006C8D" stroke-width="1.5" stroke-linecap="round"/>
<path d="M15.5907 2.91279C14.0137 2.12819 12.0841 1.66667 10 1.66667C7.91592 1.66667 5.98625 2.12819 4.4093 2.91279C3.63598 3.29756 3.24932 3.48994 2.87467 4.09482C2.5 4.69971 2.5 5.2854 2.5 6.45679V9.36425C2.5 14.1004 6.2853 16.7337 8.4775 17.8615C9.08892 18.1761 9.39458 18.3333 10 18.3333C10.6054 18.3333 10.9111 18.1761 11.5224 17.8615C13.7147 16.7337 17.5 14.1004 17.5 9.36425V6.45679C17.5 5.28541 17.5 4.69972 17.1253 4.09482C16.7507 3.48993 16.364 3.29756 15.5907 2.91279Z" stroke="#006C8D" stroke-width="1.5" stroke-linecap="round" stroke-linejoin="round"/>
</svg>
