<svg width="20" height="20" viewBox="0 0 20 20" fill="none" xmlns="http://www.w3.org/2000/svg">
<path d="M10.418 1.66797C10.418 1.66797 14.168 3.7513 14.168 6.45964C14.168 8.41564 12.4891 10.0013 10.418 10.0013C8.34689 10.0013 6.66797 8.41564 6.66797 6.45964C6.66797 3.7513 10.418 1.66797 10.418 1.66797Z" stroke="#00A2C7" stroke-width="1.5" stroke-linejoin="round"/>
<path d="M3.33203 11.668H5.4039C5.68476 11.668 5.96106 11.739 6.20716 11.8743L7.91536 12.8139H8.7487C9.9987 12.8139 10.832 13.7713 10.832 14.5845L8.59553 15.33C8.42453 15.387 8.23956 15.387 8.06851 15.33L5.83203 14.5845M10.8314 14.168L14.3406 12.9982C15.1778 12.7192 16.0874 13.1411 16.4151 13.9604C16.5562 14.3132 16.4034 14.7154 16.0634 14.8853L9.74245 18.0458C9.37078 18.2316 8.9432 18.272 8.54336 18.1588L3.33203 16.6846" stroke="#00A2C7" stroke-width="1.5" stroke-linecap="round" stroke-linejoin="round"/>
</svg>
